HIERARCHY
ROOT Hips
{
	OFFSET -0.001795 -0.223333 0.028219
	CHANNELS 6 Xposition Yposition Zposition Zrotation Yrotation Xrotation 
	JOINT LeftUpLeg
	{
		OFFSET 0.069520 -0.091406 -0.006815
		CHANNELS 3 Zrotation Yrotation Xrotation
		JOINT LeftLeg
		{
			OFFSET 0.034277 -0.375199 -0.004496
			CHANNELS 3 Zrotation Yrotation Xrotation
			JOINT LeftFoot
			{
				OFFSET -0.013596 -0.397961 -0.043693
				CHANNELS 3 Zrotation Yrotation Xrotation
				JOINT LeftToe
				{
					OFFSET 0.026358 -0.055791 0.119288
					CHANNELS 3 Zrotation Yrotation Xrotation
					End Site
					{
						OFFSET 0.000000 0.000000 0.000000
					}
				}
			}
		}
	}
	JOINT RightUpLeg
	{
		OFFSET -0.067670 -0.090522 -0.004320
		CHANNELS 3 Zrotation Yrotation Xrotation
		JOINT RightLeg
		{
			OFFSET -0.038290 -0.382569 -0.008850
			CHANNELS 3 Zrotation Yrotation Xrotation
			JOINT RightFoot
			{
				OFFSET 0.015774 -0.398415 -0.042312
				CHANNELS 3 Zrotation Yrotation Xrotation
				JOINT RightToe
				{
					OFFSET -0.025372 -0.048144 0.123348
					CHANNELS 3 Zrotation Yrotation Xrotation
					End Site
					{
						OFFSET 0.000000 0.000000 0.000000
					}
				}
			}
		}
	}
	JOINT Spine
	{
		OFFSET -0.002533 0.108963 -0.026696
		CHANNELS 3 Zrotation Yrotation Xrotation
		JOINT Spine1
		{
			OFFSET 0.005487 0.135180 0.001092
			CHANNELS 3 Zrotation Yrotation Xrotation
			JOINT Spine2
			{
				OFFSET 0.001457 0.052922 0.025425
				CHANNELS 3 Zrotation Yrotation Xrotation
				JOINT Neck
				{
					OFFSET -0.002778 0.213870 -0.042857
					CHANNELS 3 Zrotation Yrotation Xrotation
					JOINT Head
					{
						OFFSET 0.005152 0.064970 0.051349
						CHANNELS 3 Zrotation Yrotation Xrotation
						End Site
						{
							OFFSET 0.000000 0.000000 0.000000
						}
					}
				}
				JOINT LeftShoulder
				{
					OFFSET 0.078845 0.121749 -0.034090
					CHANNELS 3 Zrotation Yrotation Xrotation
					JOINT LeftArm
					{
						OFFSET 0.090977 0.030469 -0.008868
						CHANNELS 3 Zrotation Yrotation Xrotation
						JOINT LeftForeArm
						{
							OFFSET 0.259612 -0.012772 -0.027456
							CHANNELS 3 Zrotation Yrotation Xrotation
							JOINT LeftHand
							{
								OFFSET 0.249234 0.008986 -0.001171
								CHANNELS 3 Zrotation Yrotation Xrotation
								End Site
								{
									OFFSET 0.000000 0.000000 0.000000
								}
							}
						}
					}
				}
				JOINT RightShoulder
				{
					OFFSET -0.081759 0.118833 -0.038615
					CHANNELS 3 Zrotation Yrotation Xrotation
					JOINT RightArm
					{
						OFFSET -0.096012 0.032551 -0.009143
						CHANNELS 3 Zrotation Yrotation Xrotation
						JOINT RightForeArm
						{
							OFFSET -0.253742 -0.013329 -0.021401
							CHANNELS 3 Zrotation Yrotation Xrotation
							JOINT RightHand
							{
								OFFSET -0.255298 0.007772 -0.005559
								CHANNELS 3 Zrotation Yrotation Xrotation
								End Site
								{
									OFFSET 0.000000 0.000000 0.000000
								}
							}
						}
					}
				}
			}
		}
	}
}
MOTION
Frames: 10
Frame Time: 0.050000
0.000000 0.884947 0.000000 -7.356567 -14.031812 43.786185 17.804966 10.568099 -60.473377 -8.225156 1.858900 12.709529 8.751463 17.223849 16.929955 0.000000 0.000000 0.000000 -18.209122 3.277893 -56.625496 14.682214 -1.641182 8.573208 -10.834137 -28.950688 22.127040 0.000000 0.000000 0.000000 -0.474674 3.900127 63.910229 -3.863535 1.206558 -28.588999 -8.759943 0.507857 25.776916 12.716528 -3.660392 -33.049466 0.000000 0.000000 0.000000 7.262331 -35.562893 12.693442 -11.366972 -34.550145 -0.749896 17.093847 -13.473074 -1.486278 0.000000 0.000000 0.000000 5.246091 30.276298 13.730017 3.677445 44.546113 -4.406654 -24.888967 20.365912 -3.089335 0.000000 0.000000 0.000000 
-0.001062 0.885006 -0.005863 -6.882145 -14.370654 43.781982 17.658100 10.722437 -61.029525 -8.316400 1.850110 12.326571 8.540262 16.850209 19.536233 0.000000 0.000000 0.000000 -18.245108 3.343452 -57.235534 14.143519 -1.606295 9.031620 -11.012006 -29.333868 21.543978 0.000000 0.000000 0.000000 -0.196565 3.642534 63.183461 -4.053984 1.192118 -31.634224 -9.243800 2.350667 27.428121 17.492767 -4.549556 -37.336440 0.000000 0.000000 0.000000 -0.489176 -37.660052 15.915663 -7.329126 -28.024615 -1.812128 17.576971 -12.132137 -1.399941 0.000000 0.000000 0.000000 12.249929 26.740402 13.728635 2.460707 39.202710 -4.394777 -24.061269 25.878026 -3.931211 0.000000 0.000000 0.000000 
-0.002711 0.884722 -0.011902 -4.770679 -13.634425 39.643887 16.820693 9.174074 -59.873372 -9.304980 2.280891 14.636103 8.153032 16.477906 20.686069 0.000000 0.000000 0.000000 -19.886294 2.060255 -55.038236 15.360372 -2.025645 11.498593 -11.194827 -29.044360 22.118177 0.000000 0.000000 0.000000 0.802577 2.476267 64.411179 -6.664822 1.466955 -34.753392 -7.938918 0.850041 27.619916 14.697445 -4.277354 -34.638753 0.000000 0.000000 0.000000 -7.672645 -35.380579 17.409590 -7.251650 -23.388206 -1.813122 19.114452 -11.866137 -1.468529 0.000000 0.000000 0.000000 13.964923 22.698396 11.350897 8.559972 33.827580 -2.528534 -21.414897 26.246485 -3.518618 0.000000 0.000000 0.000000 
-0.004111 0.884938 -0.017924 -4.036246 -13.706651 37.831578 17.376174 9.434174 -60.156747 -10.277931 2.577609 15.039437 7.577013 15.969883 28.738381 0.000000 0.000000 0.000000 -21.166150 1.454566 -54.097226 16.694123 -2.342147 12.370527 -10.190064 -27.284728 21.957293 0.000000 0.000000 0.000000 0.594154 2.248689 61.979001 -6.639236 1.446488 -34.746305 -8.624757 2.390026 25.901490 17.062870 -5.117168 -34.155407 0.000000 0.000000 0.000000 -11.076385 -30.400376 15.534670 -7.261218 -15.309083 -1.620537 19.190792 -10.348533 -1.279593 0.000000 0.000000 0.000000 19.370922 17.704526 9.423332 9.608308 24.159217 -1.934690 -19.889822 27.370966 -3.463850 0.000000 0.000000 0.000000 
-0.005555 0.883569 -0.023794 -3.041881 -12.871570 33.570954 16.849373 8.041079 -57.582821 -10.106533 2.657689 16.492034 6.945321 15.249971 27.753129 0.000000 0.000000 0.000000 -20.605884 1.170429 -51.372826 16.547360 -2.582796 15.053085 -10.425148 -27.280861 20.542162 0.000000 0.000000 0.000000 0.000162 2.034185 60.274931 -6.059865 1.387501 -35.625289 -8.305131 4.371308 26.891140 18.021041 -6.510314 -30.489264 0.000000 0.000000 0.000000 -11.712989 -24.546533 11.985689 -6.328844 -6.845837 -1.249361 22.360978 -9.024494 -1.439758 0.000000 0.000000 0.000000 22.362321 11.674669 6.463357 8.739863 14.754900 -1.700387 -15.800669 28.242943 -2.819829 0.000000 0.000000 0.000000 
-0.006046 0.881991 -0.029694 -2.823856 -12.940582 29.824402 17.481882 7.624297 -54.105797 -10.928836 2.995248 16.985511 6.407831 14.368997 25.715634 0.000000 0.000000 0.000000 -20.364869 1.115205 -48.200633 17.738306 -2.902788 16.437157 -9.857873 -26.175036 17.069063 0.000000 0.000000 0.000000 -0.496499 2.158540 58.190358 -5.873397 1.411994 -35.912380 -7.630380 6.348134 27.495479 17.523135 -5.790954 -32.676460 0.000000 0.000000 0.000000 -8.017052 -17.887542 7.633797 -6.134769 -1.450310 -0.971202 20.356453 -7.059855 -1.092757 0.000000 0.000000 0.000000 21.182934 5.595114 3.022209 10.141315 7.869787 -1.539184 -13.607069 28.698921 -2.436405 0.000000 0.000000 0.000000 
-0.006014 0.878138 -0.035516 -1.898729 -11.733476 25.691647 16.913073 6.449323 -52.146152 -11.279864 3.334564 19.482980 5.873888 13.735344 23.439243 0.000000 0.000000 0.000000 -20.101190 0.707967 -46.057544 17.476564 -3.362218 21.055853 -9.502950 -25.160281 13.538168 0.000000 0.000000 0.000000 0.045588 1.098160 55.478864 -6.114546 1.465955 -35.799925 -6.941185 6.611119 27.769059 16.061826 -5.995176 -29.373436 0.000000 0.000000 0.000000 -6.062113 -11.772715 4.621726 -4.194272 2.440230 -0.512886 20.400202 -6.805058 -1.117829 0.000000 0.000000 0.000000 19.299398 -0.291702 -0.525889 9.241207 0.861645 -1.304553 -12.218815 30.956589 -2.409063 0.000000 0.000000 0.000000 
-0.005542 0.877044 -0.040113 -1.758735 -11.587752 22.566637 16.872128 6.007092 -50.110148 -11.767700 3.777178 21.710305 6.078784 13.839481 20.612985 0.000000 0.000000 0.000000 -19.649468 0.691055 -44.042638 17.690708 -3.667802 23.900550 -8.882350 -23.728859 10.684347 0.000000 0.000000 0.000000 -0.146245 0.852138 51.457179 -5.836467 1.471893 -34.575690 -5.811880 7.240456 27.241230 15.259815 -5.855651 -28.575150 0.000000 0.000000 0.000000 -3.707776 -6.225822 2.168663 -2.886091 4.056083 -0.210447 20.459634 -8.959422 -1.501083 0.000000 0.000000 0.000000 17.836431 -5.298398 -3.348307 6.030383 -3.842430 -0.665007 -11.469499 33.669336 -2.561447 0.000000 0.000000 0.000000 
-0.004700 0.879057 -0.042372 -1.853480 -11.273020 20.129254 17.194148 5.729977 -48.148591 -13.004164 4.354323 22.779012 7.055390 15.158902 19.376258 0.000000 0.000000 0.000000 -18.261041 0.913372 -42.373958 16.480248 -3.535187 26.789923 -8.321807 -22.319081 8.418003 0.000000 0.000000 0.000000 0.061902 0.405454 47.777077 -6.597998 1.567460 -34.679266 -3.974405 7.116877 27.142854 14.296036 -6.208242 -25.360176 0.000000 0.000000 0.000000 -3.601292 -1.715616 0.344574 1.890058 3.380882 0.596520 20.530563 -8.819909 -1.504540 0.000000 0.000000 0.000000 15.220498 -9.757014 -5.655976 2.780925 -6.766340 0.083048 -12.311454 33.785941 -2.924470 0.000000 0.000000 0.000000 
-0.003591 0.883992 -0.041000 -1.671873 -11.685144 16.962841 16.987106 5.075166 -44.200901 -12.559095 4.334201 23.252917 5.704480 12.988072 16.490342 0.000000 0.000000 0.000000 -17.190785 1.116166 -39.593841 14.671060 -2.996640 29.201682 -6.772636 -18.793366 6.694604 0.000000 0.000000 0.000000 0.242081 0.127696 42.795751 -6.226467 1.593805 -31.917167 -3.828240 7.856940 26.164038 15.052172 -6.342448 -26.866081 0.000000 0.000000 0.000000 2.596712 3.233743 -1.095000 1.401970 2.030418 0.376630 21.865624 -9.202293 -1.679106 0.000000 0.000000 0.000000 12.101822 -13.969458 -7.371077 -0.384749 -7.531584 0.737263 -13.442562 32.868064 -3.157841 0.000000 0.000000 0.000000 
